<svg width="0" height="0"><symbol xmlns="http://www.w3.org/2000/svg" id="bag" fill="none" stroke="currentColor" stroke-linecap="round" stroke-linejoin="round" stroke-width="1.5" viewBox="0 0 24 24"><path d="M6 2 3 6v14c0 1.1.9 2 2 2h14a2 2 0 0 0 2-2V6l-3-4H6zM3.8 6h16.4M16 10a4 4 0 1 1-8 0"/></symbol><symbol xmlns="http://www.w3.org/2000/svg" id="like" fill="none" stroke="currentColor" stroke-linecap="round" stroke-linejoin="round" stroke-width="1.5" viewBox="0 0 24 24"><path d="M20.84 4.61a5.5 5.5 0 0 0-7.78 0L12 5.67l-1.06-1.06a5.5 5.5 0 0 0-7.78 7.78l1.06 1.06L12 21.23l7.78-7.78 1.06-1.06a5.5 5.5 0 0 0 0-7.78z"/></symbol><symbol xmlns="http://www.w3.org/2000/svg" id="moon" fill="none" stroke="currentColor" stroke-linecap="round" stroke-linejoin="round" stroke-width="1.5" viewBox="0 0 24 24"><path d="M21 12.79A9 9 0 1 1 11.21 3 7 7 0 0 0 21 12.79z"/></symbol><symbol xmlns="http://www.w3.org/2000/svg" id="profile" fill="none" stroke="currentColor" stroke-linecap="round" stroke-linejoin="round" stroke-width="1.5" viewBox="0 0 24 24"><path d="M20 21v-2a4 4 0 0 0-4-4H8a4 4 0 0 0-4 4v2"/><circle cx="12" cy="7" r="4"/></symbol><symbol xmlns="http://www.w3.org/2000/svg" id="sun" fill="none" stroke="currentColor" stroke-linecap="round" stroke-linejoin="round" stroke-width="1.5" viewBox="0 0 24 24"><circle cx="12" cy="12" r="5"/><path d="M12 1v2m0 18v2M4.2 4.2l1.4 1.4m12.8 12.8 1.4 1.4M1 12h2m18 0h2M4.2 19.8l1.4-1.4M18.4 5.6l1.4-1.4"/></symbol></svg>