<svg width="0" height="0"><symbol xmlns="http://www.w3.org/2000/svg" id="profile" fill="none" viewBox="0 0 24 24"><path stroke="#fff" stroke-linecap="round" stroke-linejoin="round" stroke-width="1.5" d="M12.12 12.78a.963.963 0 0 0-.24 0 3.27 3.27 0 0 1-3.16-3.27c0-1.81 1.46-3.28 3.28-3.28a3.276 3.276 0 0 1 .12 6.55Zm6.62 6.6A9.934 9.934 0 0 1 12 22c-2.6 0-4.96-.99-6.74-2.62.1-.94.7-1.86 1.77-2.58 2.74-1.82 7.22-1.82 9.94 0 1.07.72 1.67 1.64 1.77 2.58Z"/><path stroke="#fff" stroke-linecap="round" stroke-linejoin="round" stroke-width="1.5" d="M12 22c5.523 0 10-4.477 10-10S17.523 2 12 2 2 6.477 2 12s4.477 10 10 10Z"/></symbol><symbol xmlns="http://www.w3.org/2000/svg" id="moon" fill="none" stroke="currentColor" stroke-linecap="round" stroke-linejoin="round" stroke-width="1.5" viewBox="0 0 24 24"><path d="M21 12.79A9 9 0 1 1 11.21 3 7 7 0 0 0 21 12.79z"/></symbol><symbol xmlns="http://www.w3.org/2000/svg" id="sun" fill="none" stroke="currentColor" stroke-linecap="round" stroke-linejoin="round" stroke-width="1.5" viewBox="0 0 24 24"><circle cx="12" cy="12" r="5"/><path d="M12 1v2m0 18v2M4.2 4.2l1.4 1.4m12.8 12.8 1.4 1.4M1 12h2m18 0h2M4.2 19.8l1.4-1.4M18.4 5.6l1.4-1.4"/></symbol></svg>